<svg width="100" height="100" viewBox="0 0 100 100" fill="none" xmlns="http://www.w3.org/2000/svg">
<rect width="100" height="100" rx="30" fill="url(#paint0_linear_25_62)"/>
<g opacity="0.25" filter="url(#filter0_f_25_62)">
<rect x="15.0656" y="50" width="68.1223" height="42.5764" rx="21.2882" fill="url(#paint1_linear_25_62)"/>
</g>
<rect x="13" y="12.9999" width="73.7991" height="73.7991" rx="30" fill="url(#paint2_linear_25_62)"/>
<g filter="url(#filter1_i_25_62)">
<path d="M68.0955 47.6725L69.9037 45.8627C69.9693 45.7969 70.1231 45.6428 69.8119 45.3221C69.6784 45.1846 69.5567 45.1143 69.4503 45.1135H69.4484C69.3568 45.1135 69.2951 45.1627 69.2467 45.211L67.4343 47.0251L65.6247 45.2028C65.4785 45.0563 65.3072 45.0906 65.0864 45.3113C64.8619 45.5373 64.8251 45.7108 64.9708 45.8574L66.7806 47.6795L65.0081 49.4537L64.9955 49.4661C64.9523 49.5079 64.8872 49.571 64.8863 49.674C64.8855 49.7802 64.9562 49.9053 65.0964 50.0457C65.2148 50.1643 65.327 50.2243 65.43 50.2243H65.4301C65.5462 50.2243 65.6203 50.1498 65.6623 50.1079L67.4415 48.327L69.2608 50.1482C69.2838 50.1711 69.3479 50.224 69.4507 50.224H69.4544C69.5695 50.2226 69.6906 50.1558 69.8145 50.0255C70.0187 49.8109 70.0527 49.6322 69.9157 49.4942L68.0955 47.6725ZM61.563 45.0726C60.223 45.1746 59.1733 46.3542 59.1733 47.7582V52.1973C59.1733 52.4545 59.3687 52.5071 59.6619 52.5071C59.9551 52.5071 60.1504 52.4545 60.1504 52.1973V47.7477C60.1504 46.873 60.7862 46.122 61.5977 46.0379C62.0636 45.9903 62.5115 46.1363 62.8598 46.4507C63.2017 46.7592 63.3979 47.2027 63.398 47.6676C63.398 47.8006 63.3329 48.234 63.0358 48.6362C62.8111 48.9401 62.3854 49.3022 61.6306 49.3022C61.6265 49.3022 61.621 49.3022 61.6163 49.3022C61.4226 49.3022 61.2572 49.3113 61.2254 49.7705C61.204 50.0796 61.2058 50.2178 61.4725 50.2549C61.9483 50.321 62.4334 50.2279 62.9141 49.9778C63.735 49.5504 64.2849 48.7404 64.3495 47.8639C64.4057 47.1026 64.1314 46.3599 63.5968 45.8262C63.0603 45.2906 62.3193 45.0162 61.563 45.0726ZM33.8198 48.0147C32.8597 47.8768 31.9234 48.1324 31.1608 48.7199V46.0761H35.6371C35.7926 46.0761 35.9041 46.048 35.9041 45.5884C35.9041 45.1398 35.7235 45.122 35.6044 45.122H30.6477C30.3599 45.122 30.2076 45.355 30.2076 45.6133V49.9525C30.2076 50.18 30.3517 50.2571 30.6199 50.3102C30.8547 50.3567 30.991 50.3296 31.0937 50.2157L31.1045 50.199C31.5767 49.5178 32.6042 48.8578 33.5808 48.9775C34.7466 49.1202 35.6852 50.051 35.8136 51.1905C35.8955 51.9176 35.6738 52.6166 35.1898 53.1587C34.7119 53.6939 34.0278 54.0009 33.3133 54.0009C32.2546 54.0009 31.3294 53.3198 30.9441 52.3313C30.8871 52.185 30.7907 52.0766 30.3737 52.2284C29.9905 52.3678 29.9683 52.5292 30.0211 52.6754C30.5227 54.0578 31.8457 54.9867 33.3131 54.9867C34.3069 54.9867 35.2581 54.5602 35.9226 53.8165C36.5959 53.0632 36.9017 52.0921 36.7891 51.0821C36.6126 49.501 35.3898 48.2396 33.8198 48.0147ZM53.1729 53.9362C51.0107 53.9362 49.2516 52.1756 49.2516 50.0116C49.2516 47.8474 51.0107 46.0868 53.1729 46.0868C55.3349 46.0868 57.0939 47.8474 57.0939 50.0116C57.0939 52.1756 55.3349 53.9362 53.1729 53.9362ZM53.1729 45.0231C50.4245 45.0231 48.1886 47.2609 48.1886 50.0116C48.1886 52.7622 50.4245 55 53.1729 55C55.9211 55 58.1569 52.7622 58.1569 50.0116C58.1569 47.2609 55.9211 45.0231 53.1729 45.0231ZM42.3864 53.9362C40.2242 53.9362 38.4652 52.1756 38.4652 50.0116C38.4652 47.8474 40.2242 46.0868 42.3864 46.0868C44.5485 46.0868 46.3075 47.8474 46.3075 50.0116C46.3075 52.1756 44.5485 53.9362 42.3864 53.9362ZM42.3864 45.0231C39.6381 45.0231 37.4021 47.2609 37.4021 50.0116C37.4021 52.7622 39.6381 55 42.3864 55C45.1347 55 47.3705 52.7622 47.3705 50.0116C47.3705 47.2609 45.1347 45.0231 42.3864 45.0231Z" fill="white"/>
</g>
<defs>
<filter id="filter0_f_25_62" x="9.60555" y="44.54" width="79.0423" height="53.4964" filterUnits="userSpaceOnUse" color-interpolation-filters="sRGB">
<feFlood flood-opacity="0" result="BackgroundImageFix"/>
<feBlend mode="normal" in="SourceGraphic" in2="BackgroundImageFix" result="shape"/>
<feGaussianBlur stdDeviation="2.73" result="effect1_foregroundBlur_25_62"/>
</filter>
<filter id="filter1_i_25_62" x="27" y="27" width="45" height="45.5" filterUnits="userSpaceOnUse" color-interpolation-filters="sRGB">
<feFlood flood-opacity="0" result="BackgroundImageFix"/>
<feBlend mode="normal" in="SourceGraphic" in2="BackgroundImageFix" result="shape"/>
<feColorMatrix in="SourceAlpha" type="matrix" values="0 0 0 0 0 0 0 0 0 0 0 0 0 0 0 0 0 0 127 0" result="hardAlpha"/>
<feOffset dy="0.5"/>
<feGaussianBlur stdDeviation="1.25"/>
<feComposite in2="hardAlpha" operator="arithmetic" k2="-1" k3="1"/>
<feColorMatrix type="matrix" values="0 0 0 0 0 0 0 0 0 0 0 0 0 0 0 0 0 0 0.1 0"/>
<feBlend mode="normal" in2="shape" result="effect1_innerShadow_25_62"/>
</filter>
<linearGradient id="paint0_linear_25_62" x1="8.40611" y1="6.55022" x2="82.6419" y2="100" gradientUnits="userSpaceOnUse">
<stop stop-color="#FBFBFC"/>
<stop offset="1" stop-color="#DBDDE8"/>
</linearGradient>
<linearGradient id="paint1_linear_25_62" x1="53.8348" y1="93.8462" x2="39.9491" y2="44.9043" gradientUnits="userSpaceOnUse">
<stop offset="0.0729167" stop-color="#100F0D"/>
<stop offset="0.973958" stop-color="#35322D"/>
</linearGradient>
<linearGradient id="paint2_linear_25_62" x1="55" y1="88.9999" x2="20.5" y2="12.9999" gradientUnits="userSpaceOnUse">
<stop offset="0.0729167" stop-color="#100F0D"/>
<stop offset="0.973958" stop-color="#35322D"/>
</linearGradient>
</defs>
</svg>
