<svg width="100" height="100" viewBox="0 0 100 100" fill="none" xmlns="http://www.w3.org/2000/svg">
<rect width="100" height="100" rx="30" fill="url(#paint0_linear_25_68)"/>
<g opacity="0.25" filter="url(#filter0_f_25_68)">
<rect x="15.0656" y="50" width="68.1223" height="42.5764" rx="21.2882" fill="url(#paint1_linear_25_68)"/>
</g>
<rect x="13" y="12.9999" width="73.7991" height="73.7991" rx="30" fill="url(#paint2_linear_25_68)"/>
<g filter="url(#filter1_i_25_68)">
<path d="M52.5705 49.0813C52.5705 55.1968 47.5298 60.1625 41.2853 60.1625C35.0408 60.1625 30 55.1968 30 49.0813C30 42.9658 35.0408 38 41.2853 38C47.5298 38 52.5705 42.9658 52.5705 49.0813ZM64.9342 49.0813C64.9342 54.8298 62.4013 59.5021 59.2915 59.5021C56.1818 59.5021 53.6489 54.8298 53.6489 49.0813C53.6489 43.3327 56.1818 38.6605 59.2915 38.6605C62.4013 38.6605 64.9342 43.3082 64.9342 49.0813ZM70 49.0813C70 54.2427 69.1223 58.4257 68.0188 58.4257C66.9154 58.4257 66.0376 54.2427 66.0376 49.0813C66.0376 43.9198 66.9154 39.7368 68.0188 39.7368C69.1223 39.7368 70 43.9198 70 49.0813Z" fill="white"/>
</g>
<defs>
<filter id="filter0_f_25_68" x="9.60555" y="44.54" width="79.0423" height="53.4964" filterUnits="userSpaceOnUse" color-interpolation-filters="sRGB">
<feFlood flood-opacity="0" result="BackgroundImageFix"/>
<feBlend mode="normal" in="SourceGraphic" in2="BackgroundImageFix" result="shape"/>
<feGaussianBlur stdDeviation="2.73" result="effect1_foregroundBlur_25_68"/>
</filter>
<filter id="filter1_i_25_68" x="27" y="27" width="45" height="45.5" filterUnits="userSpaceOnUse" color-interpolation-filters="sRGB">
<feFlood flood-opacity="0" result="BackgroundImageFix"/>
<feBlend mode="normal" in="SourceGraphic" in2="BackgroundImageFix" result="shape"/>
<feColorMatrix in="SourceAlpha" type="matrix" values="0 0 0 0 0 0 0 0 0 0 0 0 0 0 0 0 0 0 127 0" result="hardAlpha"/>
<feOffset dy="0.5"/>
<feGaussianBlur stdDeviation="1.25"/>
<feComposite in2="hardAlpha" operator="arithmetic" k2="-1" k3="1"/>
<feColorMatrix type="matrix" values="0 0 0 0 0 0 0 0 0 0 0 0 0 0 0 0 0 0 0.1 0"/>
<feBlend mode="normal" in2="shape" result="effect1_innerShadow_25_68"/>
</filter>
<linearGradient id="paint0_linear_25_68" x1="8.40611" y1="6.55022" x2="82.6419" y2="100" gradientUnits="userSpaceOnUse">
<stop stop-color="#FBFBFC"/>
<stop offset="1" stop-color="#DBDDE8"/>
</linearGradient>
<linearGradient id="paint1_linear_25_68" x1="53.8348" y1="93.8462" x2="39.9491" y2="44.9043" gradientUnits="userSpaceOnUse">
<stop offset="0.0729167" stop-color="#303D4D"/>
<stop offset="0.927083" stop-color="#526378"/>
</linearGradient>
<linearGradient id="paint2_linear_25_68" x1="55" y1="88.9999" x2="20.5" y2="12.9999" gradientUnits="userSpaceOnUse">
<stop offset="0.0729167"/>
<stop offset="0.927083" stop-color="#393A3D"/>
</linearGradient>
</defs>
</svg>
