<svg width="1440" height="1024" viewBox="0 0 1440 1024" fill="none" xmlns="http://www.w3.org/2000/svg">
<g clip-path="url(#clip0_3_788)">
<circle cx="41.126" cy="704.458" r="1" fill="white"/>
<circle cx="1350.19" cy="329.671" r="1" fill="white"/>
<circle cx="1042.64" cy="690.036" r="1" fill="white"/>
<circle opacity="0.4" cx="1243.62" cy="100.277" r="1" fill="white"/>
<circle cx="1139.39" cy="237.501" r="1" fill="white"/>
<circle cx="1024.73" cy="585.673" r="1" fill="white"/>
<circle cx="805.811" cy="374.386" r="1" fill="white"/>
<circle opacity="0.4" cx="732.475" cy="804.074" r="1" fill="white"/>
<circle cx="930.948" cy="502.145" r="1" fill="white"/>
<circle cx="1326.9" cy="108.028" r="1" fill="white"/>
<circle cx="813.122" cy="557.459" r="1" fill="white"/>
<circle opacity="0.4" cx="1059.67" cy="151.18" r="1" fill="white"/>
<circle cx="313.616" cy="151.583" r="1" fill="white"/>
<circle opacity="0.4" cx="1276.51" cy="986.896" r="1" fill="white"/>
<circle cx="702.925" cy="721.59" r="1" fill="white"/>
<circle opacity="0.4" cx="914.453" cy="858.124" r="1" fill="white"/>
<circle opacity="0.4" cx="915.375" cy="315.983" r="1" fill="white"/>
<circle opacity="0.4" cx="532.472" cy="685.58" r="1" fill="white"/>
<circle opacity="0.4" cx="979.021" cy="980.639" r="1" fill="white"/>
<circle opacity="0.4" cx="386.198" cy="940.89" r="1" fill="white"/>
<circle opacity="0.4" cx="197" cy="998.874" r="1" fill="white"/>
<circle opacity="0.4" cx="1103.51" cy="254.887" r="1" fill="white"/>
<circle cx="765.247" cy="37.3212" r="1" fill="white"/>
<circle cx="361.124" cy="154.788" r="1" fill="white"/>
<circle cx="1161.51" cy="1005.49" r="1" fill="white"/>
<circle opacity="0.4" cx="39.3872" cy="581.387" r="1" fill="white"/>
<circle opacity="0.4" cx="1062.6" cy="13.1357" r="1" fill="white"/>
<circle opacity="0.4" cx="1393.05" cy="272.08" r="1" fill="white"/>
<circle opacity="0.4" cx="521.081" cy="971.121" r="1" fill="white"/>
<circle opacity="0.4" cx="1182.26" cy="892.192" r="1" fill="white"/>
<circle cx="570.311" cy="795.731" r="1" fill="white"/>
<circle opacity="0.4" cx="527.56" cy="948.189" r="1" fill="white"/>
<circle opacity="0.4" cx="145.163" cy="198.525" r="1" fill="white"/>
<circle cx="972.438" cy="760.306" r="1" fill="white"/>
<circle cx="58.3145" cy="604.451" r="1" fill="white"/>
<circle cx="11.7058" cy="110.161" r="1" fill="white"/>
<circle cx="935.007" cy="436.976" r="1" fill="white"/>
<circle cx="1208.58" cy="851.615" r="1" fill="white"/>
<circle opacity="0.4" cx="323.776" cy="239.478" r="1" fill="white"/>
<circle cx="1254.44" cy="878.663" r="1" fill="white"/>
<circle cx="157.377" cy="550.578" r="1" fill="white"/>
<circle cx="51.1912" cy="518.873" r="1" fill="white"/>
<circle opacity="0.4" cx="220.796" cy="603.701" r="1" fill="white"/>
<circle cx="639.888" cy="258.004" r="1" fill="white"/>
<circle opacity="0.4" cx="1425.32" cy="221.65" r="1" fill="white"/>
<circle opacity="0.4" cx="67.1299" cy="965.14" r="1" fill="white"/>
<circle opacity="0.4" cx="1037.1" cy="72.9231" r="1" fill="white"/>
<circle cx="478.54" cy="196.826" r="1" fill="white"/>
<circle opacity="0.4" cx="613.241" cy="423.915" r="1" fill="white"/>
<circle opacity="0.4" cx="582.308" cy="610.329" r="1" fill="white"/>
<circle opacity="0.4" cx="1069.84" cy="337.757" r="1" fill="white"/>
<circle cx="591.063" cy="612.074" r="1" fill="white"/>
<circle opacity="0.4" cx="27.4875" cy="712.84" r="1" fill="white"/>
<circle opacity="0.4" cx="783.775" cy="762.757" r="1" fill="white"/>
<circle opacity="0.4" cx="334.555" cy="590.496" r="1" fill="white"/>
<circle cx="395.482" cy="289.752" r="1" fill="white"/>
<rect x="534.057" y="990.943" width="1" height="1" fill="white"/>
<rect opacity="0.4" x="975.006" y="614.044" width="1" height="1" fill="white"/>
<rect opacity="0.4" x="97.9531" y="826.792" width="1" height="1" fill="white"/>
<rect x="1170.45" y="557.747" width="1" height="1" fill="white"/>
<rect opacity="0.4" x="67.4961" y="599.885" width="1" height="1" fill="white"/>
<rect x="1113.93" y="351.262" width="1" height="1" fill="white"/>
<rect x="144.286" y="791.858" width="1" height="1" fill="white"/>
<rect opacity="0.4" x="585.206" y="233.49" width="1" height="1" fill="white"/>
<rect opacity="0.4" x="263.395" y="654.749" width="1" height="1" fill="white"/>
<rect opacity="0.4" x="604.124" y="859.841" width="1" height="1" fill="white"/>
<rect x="852.524" y="12.2985" width="1" height="1" fill="white"/>
<rect opacity="0.4" x="324.094" y="25.8766" width="1" height="1" fill="white"/>
<rect opacity="0.4" x="1131.79" y="811.573" width="1" height="1" fill="white"/>
<rect x="702.402" y="605.265" width="1" height="1" fill="white"/>
<rect opacity="0.4" x="1233.89" y="241.802" width="1" height="1" fill="white"/>
<rect x="119.343" y="5.56862" width="1" height="1" fill="white"/>
<rect x="1054.46" y="575.138" width="1" height="1" fill="white"/>
<rect x="1036.72" y="796.903" width="1" height="1" fill="white"/>
<rect x="883.949" y="543.573" width="1" height="1" fill="white"/>
<rect opacity="0.4" x="765.664" y="762.606" width="1" height="1" fill="white"/>
<rect opacity="0.4" x="735.506" y="670.317" width="1" height="1" fill="white"/>
<rect opacity="0.4" x="471.65" y="226.95" width="1" height="1" fill="white"/>
<rect x="21.9019" y="436.172" width="1" height="1" fill="white"/>
<rect x="212.694" y="99.0756" width="1" height="1" fill="white"/>
<rect x="825.756" y="52.3159" width="1" height="1" fill="white"/>
<rect x="356.075" y="184.545" width="1" height="1" fill="white"/>
<rect x="350.238" y="395.477" width="1" height="1" fill="white"/>
<rect x="898.372" y="504.636" width="1" height="1" fill="white"/>
<rect opacity="0.4" x="437.971" y="243.719" width="1" height="1" fill="white"/>
<rect opacity="0.4" x="275.567" y="164.091" width="1" height="1" fill="white"/>
<rect x="1419.74" y="984.578" width="1" height="1" fill="white"/>
<rect opacity="0.4" x="1225.94" y="389.118" width="1" height="1" fill="white"/>
<rect opacity="0.4" x="664.246" y="141.106" width="1" height="1" fill="white"/>
<rect opacity="0.4" x="862.83" y="1019.28" width="1" height="1" fill="white"/>
<rect opacity="0.4" x="473.372" y="816.664" width="1" height="1" fill="white"/>
<rect x="1116.41" y="963.613" width="1" height="1" fill="white"/>
<rect opacity="0.4" x="1082.83" y="574.111" width="1" height="1" fill="white"/>
<rect x="1035.64" y="612.694" width="1" height="1" fill="white"/>
<rect opacity="0.4" x="541.084" y="745.864" width="1" height="1" fill="white"/>
<rect opacity="0.4" x="1411.93" y="823.932" width="1" height="1" fill="white"/>
<rect opacity="0.4" x="1064.66" y="637.934" width="1" height="1" fill="white"/>
<rect x="1018.19" y="760.651" width="1" height="1" fill="white"/>
<rect x="269.149" y="485.213" width="1" height="1" fill="white"/>
<rect opacity="0.4" x="805.594" y="18.1317" width="1" height="1" fill="white"/>
<rect x="305.277" y="256.554" width="1" height="1" fill="white"/>
<rect x="454.156" y="660.171" width="1" height="1" fill="white"/>
<rect x="232.446" y="701.372" width="1" height="1" fill="white"/>
<rect opacity="0.4" x="772.182" y="482.798" width="1" height="1" fill="white"/>
<rect opacity="0.4" x="105.233" y="618.065" width="1" height="1" fill="white"/>
<rect x="218.059" y="808.357" width="1" height="1" fill="white"/>
<rect opacity="0.4" x="74.272" y="527.677" width="1" height="1" fill="white"/>
<rect x="743.11" y="565.567" width="1" height="1" fill="white"/>
<rect opacity="0.4" x="288.277" y="583.342" width="1" height="1" fill="white"/>
<rect opacity="0.4" x="629.669" y="872.783" width="1" height="1" fill="white"/>
<rect x="1330.88" y="217.817" width="1" height="1" fill="white"/>
<rect opacity="0.4" x="755.492" y="702.299" width="1" height="1" fill="white"/>
<rect opacity="0.4" x="456.44" y="226.653" width="1" height="1" fill="white"/>
<rect opacity="0.4" x="307.593" y="846.439" width="1" height="1" fill="white"/>
<rect opacity="0.4" x="404.006" y="635.241" width="1" height="1" fill="white"/>
<rect x="660.75" y="964.439" width="1" height="1" fill="white"/>
<rect opacity="0.4" x="1313.36" y="646.771" width="1" height="1" fill="white"/>
<rect opacity="0.4" x="926.517" y="2.54767" width="1" height="1" fill="white"/>
<rect opacity="0.4" x="878.5" y="15.4859" width="1" height="1" fill="white"/>
<rect x="821.725" y="590.258" width="1" height="1" fill="white"/>
<rect opacity="0.4" x="728.426" y="886.495" width="1" height="1" fill="white"/>
<rect opacity="0.4" x="222.116" y="523.599" width="1" height="1" fill="white"/>
<rect opacity="0.4" x="605.787" y="160.181" width="1" height="1" fill="white"/>
<rect x="1427.83" y="284.352" width="1" height="1" fill="white"/>
<rect x="1179.52" y="562.49" width="1" height="1" fill="white"/>
<rect opacity="0.4" x="852.221" y="371.187" width="1" height="1" fill="white"/>
<rect x="566.495" y="578.051" width="1" height="1" fill="white"/>
<rect x="777.232" y="238.847" width="1" height="1" fill="white"/>
<rect opacity="0.4" x="1402.83" y="553.357" width="1" height="1" fill="white"/>
<rect opacity="0.4" x="1242.47" y="854.085" width="1" height="1" fill="white"/>
<rect x="354.167" y="227.174" width="1" height="1" fill="white"/>
<rect x="380.646" y="871.329" width="1" height="1" fill="white"/>
<rect x="762.443" y="372.147" width="1" height="1" fill="white"/>
<rect opacity="0.4" x="152.721" y="637.819" width="1" height="1" fill="white"/>
<rect opacity="0.4" x="1317.28" y="342.054" width="1" height="1" fill="white"/>
<rect x="1338.16" y="704.866" width="1" height="1" fill="white"/>
<rect opacity="0.4" x="1399.02" y="1000.55" width="1" height="1" fill="white"/>
<rect x="10.8538" y="17.8369" width="1" height="1" fill="white"/>
<rect opacity="0.4" x="313.885" y="1017.67" width="1" height="1" fill="white"/>
<rect opacity="0.4" x="331.051" y="501.011" width="1" height="1" fill="white"/>
<rect x="885.703" y="715.856" width="1" height="1" fill="white"/>
<rect x="767.206" y="900.978" width="1" height="1" fill="white"/>
<rect opacity="0.4" x="1057.71" y="506.625" width="1" height="1" fill="white"/>
<rect opacity="0.4" x="800.152" y="456.709" width="1" height="1" fill="white"/>
<rect opacity="0.4" x="380.484" y="97.3367" width="1" height="1" fill="white"/>
<rect x="784.747" y="269.141" width="1" height="1" fill="white"/>
<rect opacity="0.4" x="1035.84" y="273.452" width="1" height="1" fill="white"/>
<rect x="14.4521" y="382.01" width="1" height="1" fill="white"/>
<rect opacity="0.4" x="453.729" y="358.365" width="1" height="1" fill="white"/>
<rect opacity="0.4" x="1433.12" y="966.338" width="1" height="1" fill="white"/>
<rect opacity="0.4" x="513.557" y="999.204" width="1" height="1" fill="white"/>
<rect opacity="0.4" x="1394.6" y="388.14" width="1" height="1" fill="white"/>
<rect x="340.473" y="806.908" width="1" height="1" fill="white"/>
<rect x="1214.14" y="297.313" width="1" height="1" fill="white"/>
<rect opacity="0.4" x="327.233" y="450.837" width="1" height="1" fill="white"/>
<path opacity="0.4" d="M263.817 719.763L264.087 720.493L264.817 720.763L264.087 721.034L263.817 721.763L263.547 721.034L262.817 720.763L263.547 720.493L263.817 719.763Z" fill="#5C5C5C"/>
<path d="M477.284 1012.8L477.554 1013.53L478.284 1013.8L477.554 1014.07L477.284 1014.8L477.014 1014.07L476.284 1013.8L477.014 1013.53L477.284 1012.8Z" fill="#5C5C5C"/>
<path d="M258.245 214.815L258.515 215.545L259.245 215.815L258.515 216.085L258.245 216.815L257.975 216.085L257.245 215.815L257.975 215.545L258.245 214.815Z" fill="#5C5C5C"/>
<path opacity="0.4" d="M342.331 529.718L342.601 530.448L343.331 530.718L342.601 530.988L342.331 531.718L342.061 530.988L341.331 530.718L342.061 530.448L342.331 529.718Z" fill="#5C5C5C"/>
<path d="M1032.99 361.83L1033.26 362.56L1033.99 362.83L1033.26 363.1L1032.99 363.83L1032.72 363.1L1031.99 362.83L1032.72 362.56L1032.99 361.83Z" fill="#5C5C5C"/>
<path d="M63.4077 262.288L63.6778 263.018L64.4077 263.288L63.6778 263.558L63.4077 264.288L63.1376 263.558L62.4077 263.288L63.1376 263.018L63.4077 262.288Z" fill="#5C5C5C"/>
<path d="M301.355 834.678L301.625 835.408L302.355 835.678L301.625 835.949L301.355 836.678L301.085 835.949L300.355 835.678L301.085 835.408L301.355 834.678Z" fill="#5C5C5C"/>
<path opacity="0.4" d="M17.47 11.8696L17.7401 12.5995L18.47 12.8696L17.7401 13.1397L17.47 13.8696L17.1999 13.1397L16.47 12.8696L17.1999 12.5995L17.47 11.8696Z" fill="#5C5C5C"/>
<path opacity="0.4" d="M235.757 750.294L236.027 751.024L236.757 751.294L236.027 751.564L235.757 752.294L235.487 751.564L234.757 751.294L235.487 751.024L235.757 750.294Z" fill="#5C5C5C"/>
<path opacity="0.4" d="M837.883 859.996L838.153 860.726L838.883 860.996L838.153 861.266L837.883 861.996L837.612 861.266L836.883 860.996L837.612 860.726L837.883 859.996Z" fill="#5C5C5C"/>
<path d="M1348.78 691.072L1349.05 691.802L1349.78 692.072L1349.05 692.343L1348.78 693.072L1348.51 692.343L1347.78 692.072L1348.51 691.802L1348.78 691.072Z" fill="#5C5C5C"/>
<path opacity="0.4" d="M567.262 531.581L567.532 532.311L568.262 532.581L567.532 532.851L567.262 533.581L566.992 532.851L566.262 532.581L566.992 532.311L567.262 531.581Z" fill="#5C5C5C"/>
<path d="M832.972 381.876L833.243 382.606L833.972 382.876L833.243 383.146L832.972 383.876L832.702 383.146L831.972 382.876L832.702 382.606L832.972 381.876Z" fill="#5C5C5C"/>
<path d="M293.513 338.255L293.784 338.985L294.513 339.255L293.784 339.525L293.513 340.255L293.243 339.525L292.513 339.255L293.243 338.985L293.513 338.255Z" fill="#5C5C5C"/>
<path opacity="0.4" d="M777.199 741.578L777.47 742.308L778.199 742.578L777.47 742.848L777.199 743.578L776.929 742.848L776.199 742.578L776.929 742.308L777.199 741.578Z" fill="#5C5C5C"/>
<path d="M1335.75 789.713L1336.02 790.443L1336.75 790.713L1336.02 790.983L1335.75 791.713L1335.48 790.983L1334.75 790.713L1335.48 790.443L1335.75 789.713Z" fill="#5C5C5C"/>
<path opacity="0.4" d="M1375.93 524.776L1376.2 525.506L1376.93 525.776L1376.2 526.047L1375.93 526.776L1375.66 526.047L1374.93 525.776L1375.66 525.506L1375.93 524.776Z" fill="#5C5C5C"/>
<path opacity="0.4" d="M394.021 143.145L394.292 143.874L395.021 144.145L394.292 144.415L394.021 145.145L393.751 144.415L393.021 144.145L393.751 143.874L394.021 143.145Z" fill="#5C5C5C"/>
<path d="M213.712 920.352L213.982 921.082L214.712 921.352L213.982 921.622L213.712 922.352L213.442 921.622L212.712 921.352L213.442 921.082L213.712 920.352Z" fill="#5C5C5C"/>
<path d="M984.64 956.758L984.91 957.488L985.64 957.758L984.91 958.028L984.64 958.758L984.37 958.028L983.64 957.758L984.37 957.488L984.64 956.758Z" fill="#5C5C5C"/>
<path d="M59.842 534.686L60.1121 535.416L60.842 535.686L60.1121 535.956L59.842 536.686L59.572 535.956L58.842 535.686L59.572 535.416L59.842 534.686Z" fill="#5C5C5C"/>
<path opacity="0.4" d="M947.735 660.164L948.005 660.894L948.735 661.164L948.005 661.435L947.735 662.164L947.465 661.435L946.735 661.164L947.465 660.894L947.735 660.164Z" fill="#5C5C5C"/>
<path d="M410.435 272.595L410.705 273.325L411.435 273.595L410.705 273.865L410.435 274.595L410.164 273.865L409.435 273.595L410.164 273.325L410.435 272.595Z" fill="#5C5C5C"/>
<path d="M306.23 978.42L306.5 979.15L307.23 979.42L306.5 979.691L306.23 980.42L305.96 979.691L305.23 979.42L305.96 979.15L306.23 978.42Z" fill="#5C5C5C"/>
<path d="M174.458 389.218L174.728 389.948L175.458 390.218L174.728 390.488L174.458 391.218L174.188 390.488L173.458 390.218L174.188 389.948L174.458 389.218Z" fill="#5C5C5C"/>
<path opacity="0.4" d="M1103.31 682.437L1103.58 683.167L1104.31 683.437L1103.58 683.707L1103.31 684.437L1103.04 683.707L1102.31 683.437L1103.04 683.167L1103.31 682.437Z" fill="#5C5C5C"/>
<path opacity="0.4" d="M1154.61 484.192L1154.88 484.922L1155.61 485.192L1154.88 485.462L1154.61 486.192L1154.34 485.462L1153.61 485.192L1154.34 484.922L1154.61 484.192Z" fill="#5C5C5C"/>
<path d="M646.868 148.71L647.138 149.439L647.868 149.71L647.138 149.98L646.868 150.71L646.598 149.98L645.868 149.71L646.598 149.439L646.868 148.71Z" fill="#5C5C5C"/>
<path d="M974.928 679.964L975.198 680.693L975.928 680.964L975.198 681.234L974.928 681.964L974.658 681.234L973.928 680.964L974.658 680.693L974.928 679.964Z" fill="#5C5C5C"/>
<path d="M1432.75 878.209L1433.02 878.939L1433.75 879.209L1433.02 879.48L1432.75 880.209L1432.48 879.48L1431.75 879.209L1432.48 878.939L1432.75 878.209Z" fill="#5C5C5C"/>
<path d="M902.149 879.212L902.419 879.942L903.149 880.212L902.419 880.482L902.149 881.212L901.879 880.482L901.149 880.212L901.879 879.942L902.149 879.212Z" fill="#5C5C5C"/>
<path d="M438.466 333.122L438.736 333.852L439.466 334.122L438.736 334.392L438.466 335.122L438.196 334.392L437.466 334.122L438.196 333.852L438.466 333.122Z" fill="#5C5C5C"/>
<path opacity="0.4" d="M1149.94 574.929L1150.21 575.659L1150.94 575.929L1150.21 576.199L1149.94 576.929L1149.67 576.199L1148.94 575.929L1149.67 575.659L1149.94 574.929Z" fill="#5C5C5C"/>
<path opacity="0.4" d="M1002.02 929.787L1002.29 930.516L1003.02 930.787L1002.29 931.057L1002.02 931.787L1001.75 931.057L1001.02 930.787L1001.75 930.516L1002.02 929.787Z" fill="#5C5C5C"/>
<path d="M700.285 999.673L700.555 1000.4L701.285 1000.67L700.555 1000.94L700.285 1001.67L700.015 1000.94L699.285 1000.67L700.015 1000.4L700.285 999.673Z" fill="#5C5C5C"/>
<path opacity="0.4" d="M833.103 131.515L833.373 132.245L834.103 132.515L833.373 132.785L833.103 133.515L832.833 132.785L832.103 132.515L832.833 132.245L833.103 131.515Z" fill="#5C5C5C"/>
<path d="M408.014 792.385L408.284 793.115L409.014 793.385L408.284 793.655L408.014 794.385L407.744 793.655L407.014 793.385L407.744 793.115L408.014 792.385Z" fill="#5C5C5C"/>
<path opacity="0.4" d="M663.235 642.607L663.505 643.337L664.235 643.607L663.505 643.877L663.235 644.607L662.965 643.877L662.235 643.607L662.965 643.337L663.235 642.607Z" fill="#5C5C5C"/>
<path d="M728.665 294.248L728.935 294.978L729.665 295.248L728.935 295.518L728.665 296.248L728.395 295.518L727.665 295.248L728.395 294.978L728.665 294.248Z" fill="#5C5C5C"/>
<path opacity="0.4" d="M1279.75 930.887L1280.02 931.617L1280.75 931.887L1280.02 932.158L1279.75 932.887L1279.48 932.158L1278.75 931.887L1279.48 931.617L1279.75 930.887Z" fill="#5C5C5C"/>
<path opacity="0.4" d="M1311.55 853.217L1311.82 853.947L1312.55 854.217L1311.82 854.487L1311.55 855.217L1311.28 854.487L1310.55 854.217L1311.28 853.947L1311.55 853.217Z" fill="#5C5C5C"/>
<path d="M322.04 103.667L322.31 104.397L323.04 104.667L322.31 104.937L322.04 105.667L321.77 104.937L321.04 104.667L321.77 104.397L322.04 103.667Z" fill="#5C5C5C"/>
<path opacity="0.4" d="M1244.16 450.132L1244.43 450.862L1245.16 451.132L1244.43 451.402L1244.16 452.132L1243.89 451.402L1243.16 451.132L1243.89 450.862L1244.16 450.132Z" fill="#5C5C5C"/>
<path opacity="0.4" d="M697.914 268.81L698.184 269.54L698.914 269.81L698.184 270.081L697.914 270.81L697.644 270.081L696.914 269.81L697.644 269.54L697.914 268.81Z" fill="#5C5C5C"/>
<path opacity="0.4" d="M1135.83 337.579L1136.1 338.309L1136.83 338.579L1136.1 338.849L1135.83 339.579L1135.56 338.849L1134.83 338.579L1135.56 338.309L1135.83 337.579Z" fill="#5C5C5C"/>
<path d="M892.895 944.348L893.165 945.078L893.895 945.348L893.165 945.618L892.895 946.348L892.625 945.618L891.895 945.348L892.625 945.078L892.895 944.348Z" fill="#5C5C5C"/>
<path d="M1154.22 552.671L1154.49 553.401L1155.22 553.671L1154.49 553.941L1154.22 554.671L1153.95 553.941L1153.22 553.671L1153.95 553.401L1154.22 552.671Z" fill="#5C5C5C"/>
<path opacity="0.4" d="M778.901 398.215L779.171 398.945L779.901 399.215L779.171 399.485L778.901 400.215L778.631 399.485L777.901 399.215L778.631 398.945L778.901 398.215Z" fill="#5C5C5C"/>
<path opacity="0.4" d="M1324.24 56.9159L1324.51 57.6458L1325.24 57.9159L1324.51 58.186L1324.24 58.9159L1323.97 58.186L1323.24 57.9159L1323.97 57.6458L1324.24 56.9159Z" fill="#5C5C5C"/>
<path opacity="0.4" d="M252.159 619.716L252.429 620.446L253.159 620.716L252.429 620.987L252.159 621.716L251.889 620.987L251.159 620.716L251.889 620.446L252.159 619.716Z" fill="#5C5C5C"/>
<ellipse opacity="0.1" cx="712" cy="110.5" rx="823" ry="533.5" fill="url(#paint0_linear_3_788)"/>
<mask id="mask0_3_788" style="mask-type:alpha" maskUnits="userSpaceOnUse" x="63" y="-145" width="1314" height="1314">
<rect x="284.17" y="23.6514" width="0.783866" height="976.697" fill="#D9D9D9"/>
<rect x="363.341" y="23.6514" width="0.783866" height="976.697" fill="#D9D9D9"/>
<rect x="442.511" y="23.6514" width="0.783866" height="976.697" fill="#D9D9D9"/>
<rect x="521.682" y="23.6514" width="0.783866" height="976.697" fill="#D9D9D9"/>
<rect x="600.852" y="23.6514" width="0.783866" height="976.697" fill="#D9D9D9"/>
<rect x="680.023" y="23.6514" width="0.783866" height="976.697" fill="#D9D9D9"/>
<rect x="759.193" y="23.6514" width="0.783866" height="976.697" fill="#D9D9D9"/>
<rect x="838.364" y="23.6514" width="0.783866" height="976.697" fill="#D9D9D9"/>
<rect x="917.534" y="23.6514" width="0.783866" height="976.697" fill="#D9D9D9"/>
<rect x="996.705" y="23.6514" width="0.783866" height="976.697" fill="#D9D9D9"/>
<rect x="1075.88" y="23.6514" width="0.783866" height="976.697" fill="#D9D9D9"/>
<rect x="1155.05" y="23.6514" width="0.783866" height="976.697" fill="#D9D9D9"/>
<rect x="1208.35" y="76.1705" width="0.783866" height="976.697" transform="rotate(90 1208.35 76.1705)" fill="#D9D9D9"/>
<rect x="1208.35" y="155.341" width="0.783866" height="976.697" transform="rotate(90 1208.35 155.341)" fill="#D9D9D9"/>
<rect x="1208.35" y="234.511" width="0.783866" height="976.697" transform="rotate(90 1208.35 234.511)" fill="#D9D9D9"/>
<rect x="1208.35" y="313.682" width="0.783866" height="976.697" transform="rotate(90 1208.35 313.682)" fill="#D9D9D9"/>
<rect x="1208.35" y="392.852" width="0.783866" height="976.697" transform="rotate(90 1208.35 392.852)" fill="#D9D9D9"/>
<rect x="1208.35" y="472.023" width="0.783866" height="976.697" transform="rotate(90 1208.35 472.023)" fill="#D9D9D9"/>
<rect x="1208.35" y="551.193" width="0.783866" height="976.697" transform="rotate(90 1208.35 551.193)" fill="#D9D9D9"/>
<rect x="1208.35" y="630.364" width="0.783866" height="976.697" transform="rotate(90 1208.35 630.364)" fill="#D9D9D9"/>
<rect x="1208.35" y="709.534" width="0.783866" height="976.697" transform="rotate(90 1208.35 709.534)" fill="#D9D9D9"/>
<rect x="1208.35" y="788.705" width="0.783866" height="976.697" transform="rotate(90 1208.35 788.705)" fill="#D9D9D9"/>
<rect x="1208.35" y="867.875" width="0.783866" height="976.697" transform="rotate(90 1208.35 867.875)" fill="#D9D9D9"/>
<rect x="1208.35" y="947.046" width="0.783866" height="976.697" transform="rotate(90 1208.35 947.046)" fill="#D9D9D9"/>
</mask>
<g mask="url(#mask0_3_788)">
<circle opacity="0.5" cx="720" cy="512" r="600" fill="url(#paint1_radial_3_788)"/>
</g>
</g>
<defs>
<linearGradient id="paint0_linear_3_788" x1="712" y1="-423" x2="712" y2="374.5" gradientUnits="userSpaceOnUse">
<stop stop-color="#5C5C5C"/>
<stop offset="1" stop-color="white" stop-opacity="0"/>
</linearGradient>
<radialGradient id="paint1_radial_3_788" cx="0" cy="0" r="1" gradientUnits="userSpaceOnUse" gradientTransform="translate(720 512) rotate(90) scale(447.5)">
<stop stop-color="#D9D9D9"/>
<stop offset="1" stop-color="#B4F4F9" stop-opacity="0"/>
</radialGradient>
<clipPath id="clip0_3_788">
<rect width="1440" height="1024" fill="white"/>
</clipPath>
</defs>
</svg>
